{
  "accessors": [
    {
      "bufferView": 2,
      "componentType": 5126,
      "count": 2875,
      "max": [
        2835.321044921875,
        -3304.25390625,
        1564.741943359375
      ],
      "min": [
        2716.14501953125,
        -3385.162109375,
        1446.2540283203125
      ],
      "type": "VEC3"
    },
    {
      "bufferView": 2,
      "byteOffset": 34500,
      "componentType": 5126,
      "count": 2875,
      "max": [
        0.99256414175033569,
        0.99642288684844971,
        0.99433332681655884
      ],
      "min": [
        -0.99715059995651245,
        -0.99644839763641357,
        -0.99188822507858276
      ],
      "type": "VEC3"
    },
    {
      "bufferView": 3,
      "componentType": 5126,
      "count": 2875,
      "max": [
        0.99939066171646118,
        0.99467235803604126,
        0.99353957176208496,
        1
      ],
      "min": [
        -0.99939173460006714,
        -0.99467235803604126,
        -0.99353945255279541,
        1
      ],
      "type": "VEC4"
    },
    {
      "bufferView": 1,
      "componentType": 5126,
      "count": 2875,
      "max": [
        0.98852401971817017,
        -0.0054230000823736191
      ],
      "min": [
        0.011401000432670116,
        -0.99477601051330566
      ],
      "type": "VEC2"
    },
    {
      "bufferView": 0,
      "componentType": 5125,
      "count": 8646,
      "max": [
        2874
      ],
      "min": [
        0
      ],
      "type": "SCALAR"
    }
  ],
  "asset": {
    "extras": {
      "author": "MGD Films (https://sketchfab.com/magadan)",
      "license": "CC-BY-4.0 (http://creativecommons.org/licenses/by/4.0/)",
      "source": "https://sketchfab.com/models/9dfc1e051fb64979b2d57ab5e22dc281",
      "title": "3D Pipes - Anti Fire"
    },
    "generator": "Sketchfab-3.18.5",
    "version": "2.0"
  },
  "bufferViews": [
    {
      "buffer": 0,
      "byteLength": 34584,
      "byteOffset": 0,
      "name": "floatBufferViews",
      "target": 34963
    },
    {
      "buffer": 0,
      "byteLength": 23000,
      "byteOffset": 34584,
      "byteStride": 8,
      "name": "floatBufferViews",
      "target": 34962
    },
    {
      "buffer": 0,
      "byteLength": 69000,
      "byteOffset": 57584,
      "byteStride": 12,
      "name": "floatBufferViews",
      "target": 34962
    },
    {
      "buffer": 0,
      "byteLength": 46000,
      "byteOffset": 126584,
      "byteStride": 16,
      "name": "floatBufferViews",
      "target": 34962
    }
  ],
  "buffers": [
    {
      "byteLength": 172584,
      "uri": "scene.bin"
    }
  ],
  "images": [
    {
      "uri": "textures/test_texture_134_baseColor.png"
    }
  ],
  "materials": [
    {
      "doubleSided": true,
      "emissiveFactor": [
        0,
        0,
        0
      ],
      "name": "test_texture_134",
      "pbrMetallicRoughness": {
        "baseColorFactor": [
          1,
          1,
          1,
          1
        ],
        "baseColorTexture": {
          "index": 0,
          "texCoord": 0
        },
        "metallicFactor": 0,
        "roughnessFactor": 0.59999999999999998
      }
    }
  ],
  "meshes": [
    {
      "primitives": [
        {
          "attributes": {
            "NORMAL": 1,
            "POSITION": 0,
            "TANGENT": 2,
            "TEXCOORD_0": 3
          },
          "indices": 4,
          "material": 0,
          "mode": 4
        }
      ]
    }
  ],
  "nodes": [
    {
      "children": [
        1
      ],
      "name": "RootNode (gltf orientation matrix)",
      "rotation": [
        -0.70710678118654746,
        -0,
        -0,
        0.70710678118654757
      ]
    },
    {
      "children": [
        2
      ],
      "matrix": [
        -0.96362733840942383,
        -0.25319996476173401,
        0.085510849952697754,
        0,
        0.19217288494110107,
        -0.8788486123085022,
        -0.43668603897094727,
        0,
        0.18571998178958893,
        -0.40436974167823792,
        0.89554071426391602,
        0,
        5813.67626953125,
        -4972.60302734375,
        -1540.67919921875,
        1
      ],
      "name": "RootNode (model correction matrix)"
    },
    {
      "children": [
        3
      ],
      "name": "levelquake2-c.unity_1.obj.cleaner.gles"
    },
    {
      "mesh": 0,
      "name": ""
    }
  ],
  "samplers": [
    {
      "magFilter": 9729,
      "minFilter": 9987,
      "wrapS": 10497,
      "wrapT": 10497
    }
  ],
  "scene": 0,
  "scenes": [
    {
      "name": "OSG_Scene",
      "nodes": [
        0
      ]
    }
  ],
  "textures": [
    {
      "sampler": 0,
      "source": 0
    }
  ]
}

